<mxfile host="app.diagrams.net" agent="Mozilla/5.0 (Windows NT 10.0; Win64; x64) AppleWebKit/537.36 (KHTML, like Gecko) Chrome/133.0.0.0 Safari/537.36" version="26.0.13">
  <diagram name="Страница — 1" id="EAozYDB-AITV7whkTNad">
    <mxGraphModel dx="1050" dy="557" grid="1" gridSize="10" guides="1" tooltips="1" connect="1" arrows="1" fold="1" page="1" pageScale="1" pageWidth="827" pageHeight="1169" math="0" shadow="0">
      <root>
        <mxCell id="0" />
        <mxCell id="1" parent="0" />
        <mxCell id="ap3ucsv-qVSWXQeiDPX9-1" value="Аренда помещений" style="swimlane;whiteSpace=wrap;html=1;" vertex="1" parent="1">
          <mxGeometry x="200" y="50" width="390" height="330" as="geometry" />
        </mxCell>
        <mxCell id="ap3ucsv-qVSWXQeiDPX9-3" value="просмотр помещений" style="ellipse;whiteSpace=wrap;html=1;" vertex="1" parent="ap3ucsv-qVSWXQeiDPX9-1">
          <mxGeometry x="45" y="40" width="100" height="40" as="geometry" />
        </mxCell>
        <mxCell id="ap3ucsv-qVSWXQeiDPX9-4" value="фильтрация помещений" style="ellipse;whiteSpace=wrap;html=1;" vertex="1" parent="ap3ucsv-qVSWXQeiDPX9-1">
          <mxGeometry x="45" y="90" width="100" height="40" as="geometry" />
        </mxCell>
        <mxCell id="ap3ucsv-qVSWXQeiDPX9-5" value="поиск помещений" style="ellipse;whiteSpace=wrap;html=1;" vertex="1" parent="ap3ucsv-qVSWXQeiDPX9-1">
          <mxGeometry x="45" y="140" width="100" height="40" as="geometry" />
        </mxCell>
        <mxCell id="ap3ucsv-qVSWXQeiDPX9-6" value="оформление заявки на аренду помещения" style="ellipse;whiteSpace=wrap;html=1;" vertex="1" parent="ap3ucsv-qVSWXQeiDPX9-1">
          <mxGeometry x="20" y="200" width="150" height="50" as="geometry" />
        </mxCell>
        <mxCell id="ap3ucsv-qVSWXQeiDPX9-7" value="оформление заявки на продление аренды" style="ellipse;whiteSpace=wrap;html=1;" vertex="1" parent="ap3ucsv-qVSWXQeiDPX9-1">
          <mxGeometry x="20" y="260" width="150" height="50" as="geometry" />
        </mxCell>
        <mxCell id="ap3ucsv-qVSWXQeiDPX9-8" value="добавление помещений" style="ellipse;whiteSpace=wrap;html=1;" vertex="1" parent="ap3ucsv-qVSWXQeiDPX9-1">
          <mxGeometry x="190" y="40" width="100" height="40" as="geometry" />
        </mxCell>
        <mxCell id="ap3ucsv-qVSWXQeiDPX9-9" value="редактирование помещений" style="ellipse;whiteSpace=wrap;html=1;" vertex="1" parent="ap3ucsv-qVSWXQeiDPX9-1">
          <mxGeometry x="185" y="90" width="110" height="40" as="geometry" />
        </mxCell>
        <mxCell id="ap3ucsv-qVSWXQeiDPX9-10" value="удаление помещений" style="ellipse;whiteSpace=wrap;html=1;" vertex="1" parent="ap3ucsv-qVSWXQeiDPX9-1">
          <mxGeometry x="190" y="140" width="100" height="40" as="geometry" />
        </mxCell>
        <mxCell id="ap3ucsv-qVSWXQeiDPX9-11" value="одобрение заявок на аренду помещения" style="ellipse;whiteSpace=wrap;html=1;" vertex="1" parent="ap3ucsv-qVSWXQeiDPX9-1">
          <mxGeometry x="180" y="200" width="150" height="50" as="geometry" />
        </mxCell>
        <mxCell id="ap3ucsv-qVSWXQeiDPX9-12" value="одобрение заявок на продление аренды помещения" style="ellipse;whiteSpace=wrap;html=1;" vertex="1" parent="ap3ucsv-qVSWXQeiDPX9-1">
          <mxGeometry x="180" y="260" width="200" height="50" as="geometry" />
        </mxCell>
        <mxCell id="ap3ucsv-qVSWXQeiDPX9-2" value="Пользователь" style="shape=umlActor;verticalLabelPosition=bottom;verticalAlign=top;html=1;outlineConnect=0;" vertex="1" parent="1">
          <mxGeometry x="60" y="180" width="30" height="60" as="geometry" />
        </mxCell>
        <mxCell id="ap3ucsv-qVSWXQeiDPX9-13" value="Администратор сайта&lt;div&gt;&lt;br&gt;&lt;/div&gt;" style="shape=umlActor;verticalLabelPosition=bottom;verticalAlign=top;html=1;outlineConnect=0;" vertex="1" parent="1">
          <mxGeometry x="710" y="170" width="30" height="60" as="geometry" />
        </mxCell>
        <mxCell id="ap3ucsv-qVSWXQeiDPX9-15" value="" style="endArrow=none;html=1;rounded=0;" edge="1" parent="1">
          <mxGeometry width="50" height="50" relative="1" as="geometry">
            <mxPoint x="90" y="180" as="sourcePoint" />
            <mxPoint x="230" y="120" as="targetPoint" />
          </mxGeometry>
        </mxCell>
        <mxCell id="ap3ucsv-qVSWXQeiDPX9-16" value="" style="endArrow=none;html=1;rounded=0;" edge="1" parent="1">
          <mxGeometry width="50" height="50" relative="1" as="geometry">
            <mxPoint x="100" y="190" as="sourcePoint" />
            <mxPoint x="230" y="160" as="targetPoint" />
          </mxGeometry>
        </mxCell>
        <mxCell id="ap3ucsv-qVSWXQeiDPX9-17" value="" style="endArrow=none;html=1;rounded=0;" edge="1" parent="1">
          <mxGeometry width="50" height="50" relative="1" as="geometry">
            <mxPoint x="100" y="210" as="sourcePoint" />
            <mxPoint x="240" y="210" as="targetPoint" />
          </mxGeometry>
        </mxCell>
        <mxCell id="ap3ucsv-qVSWXQeiDPX9-18" value="" style="endArrow=none;html=1;rounded=0;" edge="1" parent="1">
          <mxGeometry width="50" height="50" relative="1" as="geometry">
            <mxPoint x="110" y="220" as="sourcePoint" />
            <mxPoint x="210" y="270" as="targetPoint" />
          </mxGeometry>
        </mxCell>
        <mxCell id="ap3ucsv-qVSWXQeiDPX9-20" value="" style="endArrow=none;html=1;rounded=0;" edge="1" parent="1">
          <mxGeometry width="50" height="50" relative="1" as="geometry">
            <mxPoint x="110" y="240" as="sourcePoint" />
            <mxPoint x="210" y="330" as="targetPoint" />
          </mxGeometry>
        </mxCell>
        <mxCell id="ap3ucsv-qVSWXQeiDPX9-21" value="" style="endArrow=none;html=1;rounded=0;" edge="1" parent="1">
          <mxGeometry width="50" height="50" relative="1" as="geometry">
            <mxPoint x="500" y="120" as="sourcePoint" />
            <mxPoint x="700" y="190" as="targetPoint" />
          </mxGeometry>
        </mxCell>
        <mxCell id="ap3ucsv-qVSWXQeiDPX9-22" value="" style="endArrow=none;html=1;rounded=0;" edge="1" parent="1">
          <mxGeometry width="50" height="50" relative="1" as="geometry">
            <mxPoint x="510" y="160" as="sourcePoint" />
            <mxPoint x="700" y="200" as="targetPoint" />
          </mxGeometry>
        </mxCell>
        <mxCell id="ap3ucsv-qVSWXQeiDPX9-23" value="" style="endArrow=none;html=1;rounded=0;" edge="1" parent="1">
          <mxGeometry width="50" height="50" relative="1" as="geometry">
            <mxPoint x="500" y="210" as="sourcePoint" />
            <mxPoint x="700" y="210" as="targetPoint" />
          </mxGeometry>
        </mxCell>
        <mxCell id="ap3ucsv-qVSWXQeiDPX9-24" value="" style="endArrow=none;html=1;rounded=0;" edge="1" parent="1">
          <mxGeometry width="50" height="50" relative="1" as="geometry">
            <mxPoint x="540" y="260" as="sourcePoint" />
            <mxPoint x="680" y="220" as="targetPoint" />
          </mxGeometry>
        </mxCell>
        <mxCell id="ap3ucsv-qVSWXQeiDPX9-25" value="" style="endArrow=none;html=1;rounded=0;" edge="1" parent="1">
          <mxGeometry width="50" height="50" relative="1" as="geometry">
            <mxPoint x="560" y="300" as="sourcePoint" />
            <mxPoint x="690" y="220" as="targetPoint" />
          </mxGeometry>
        </mxCell>
      </root>
    </mxGraphModel>
  </diagram>
</mxfile>
